<svg id="Layer_1" enable-background="new 0 0 512.002 512.002" height="512" viewBox="0 0 512.002 512.002" width="512" xmlns="http://www.w3.org/2000/svg"><g><g clip-rule="evenodd" fill-rule="evenodd"><path d="m385.616 139.616c0-32.297-11.971-61.933-31.696-84.69-23.813-27.476-58.927-44.926-97.92-44.926-38.992 0-74.107 17.45-97.92 44.925-19.724 22.758-31.696 52.394-31.696 84.69v40.383l-5.384.002c-10.981 0-20.368 7.175-23.703 17.069-.841 2.495-1.297 5.163-1.297 7.931 0 13.75 11.25 25 25 25h5.384c5.402 70.159 66.45 123.409 136.138 119.835 63.869-3.275 117.999-53.672 123.093-119.835h5.385c13.75 0 25-11.25 25-25 0-2.769-.456-5.436-1.297-7.93-3.334-9.894-12.721-17.07-23.703-17.07-1.795 0-3.59.001-5.384-.003zm-194.582 131.282c28.652-10.328 27.986-52.306 64.966-32.316 36.981-19.99 36.314 21.989 64.966 32.316-21.102 17.828-43.688 26.698-64.966 5.42-21.278 21.278-43.864 12.408-64.966-5.42z" fill="#ffdcd5"/><g fill="#c1b0b5"><path d="m126.384 139.616c0-32.297 11.971-61.933 31.696-84.69-45.891 5.985-118.352 49.821-60.783 142.144 3.335-9.894 12.722-17.07 23.703-17.07l5.384-.002z"/><path d="m256 238.582c-36.981-19.99-36.314 21.989-64.966 32.316 21.102 17.828 43.688 26.698 64.966 5.42 21.278 21.278 43.864 12.407 64.966-5.42-28.651-10.328-27.985-52.306-64.966-32.316z"/><path d="m353.921 54.925c19.724 22.758 31.696 52.394 31.696 84.69v40.381c1.795.004 3.59.003 5.384.003 10.982 0 20.368 7.176 23.702 17.07 57.569-92.323-14.892-136.159-60.782-142.144z"/></g><path d="m233.767 468.565c-44.046-12.486-50.894-64.06-37.076-115.631l-1.457-.866c-58.091 24.046-99.234 81.414-99.234 147.932v2.001h320v-2.001c0-66.392-40.986-123.669-98.904-147.796l-1.926.73c13.738 51.272 7.049 102.549-36.315 115.41-6.736 1.998-14.357 3.069-22.924 3.069-8.247 0-15.616-.992-22.164-2.848z" fill="#c68a65"/><path d="m284.212 386.279-28.211-24.003-28.294 24.074.443 1.822 13.886 13.886c7.681 7.681 20.251 7.68 27.931 0l14.012-14.011z" fill="#ffc144"/><path d="m255.931 471.413c8.567 0 16.188-1.071 22.924-3.069l-8.822-65.792-.197-.366c-7.653 7.513-20.04 7.508-27.687-.017l-.176.388-8.206 66.008c6.548 1.856 13.917 2.848 22.164 2.848z" fill="#ffc144"/><path d="m233.767 468.565 8.206-66.008.176-.388c-.038-.037-.076-.075-.113-.112l-13.886-13.886-.443-1.822-7.756 6.599-23.26-40.014c-13.818 51.57-6.97 103.145 37.076 115.631z" fill="#fff"/><path d="m278.234 468.565-8.206-66.008-.176-.388c.038-.037.076-.075.113-.112l13.886-13.886.443-1.822 7.756 6.599 23.26-40.014c13.818 51.57 6.971 103.145-37.076 115.631z" fill="#fff"/><path d="m315.997 351.751c-7.268-2.964-14.798-5.408-22.544-7.284-11.871 3.597-24.447 5.533-37.453 5.533s-25.581-1.935-37.453-5.533c-7.745 1.876-15.276 4.319-22.543 7.284l23.947 41.197 7.011-5.965 29.039-24.708 29.039 24.708 7.011 5.965z" fill="#fff"/></g><g><path d="m185.861 83.184c-4.652-2.978-10.836-1.622-13.814 3.03-10.247 16.004-15.663 34.471-15.663 53.402 0 5.523 4.477 10 10 10s10-4.477 10-10c0-15.102 4.325-29.839 12.506-42.618 2.979-4.652 1.622-10.836-3.029-13.814z"/><path d="m321.911 343.411c38.441-20.629 66.262-58.655 72.682-103.594 17.618-1.805 31.407-16.731 31.407-34.817 0-2.16-.2-4.274-.576-6.326 27.41-46.05 22.375-78.9 13.106-98.509-15.715-33.245-51.709-49.924-79.401-54.564-25.552-28.003-62.323-45.601-103.129-45.601-40.805 0-77.576 17.598-103.127 45.601-27.676 4.641-63.713 21.34-79.415 54.593-9.255 19.6-14.281 52.443 13.119 98.478-.377 2.053-.577 4.168-.577 6.328 0 18.086 13.788 33.012 31.405 34.817 4.693 32.958 20.937 62.964 46.344 85.266 8.171 7.172 17.007 13.298 26.339 18.327-25.935 11.029-49.111 28.509-66.909 50.779-23.975 30-37.179 67.578-37.179 105.811v2.001c0 5.523 4.477 10 10 10h320c5.523 0 10-4.477 10-10v-2.001c0-38.216-13.192-75.78-37.147-105.771-17.801-22.288-40.99-39.783-66.942-50.818zm-103.585 11.428c8.313 2.339 16.851 3.897 25.523 4.646l-21.265 18.093-11.929-20.522c2.525-.801 5.082-1.543 7.671-2.217zm44.569 40.147c-3.801 3.802-9.987 3.802-13.789 0l-7.41-7.41 14.304-12.17 14.304 12.17zm-61.561-14.166 9.971 17.153c1.489 2.562 4.037 4.331 6.957 4.831 2.915.499 5.897-.317 8.151-2.227l5.095 5.095-6.049 48.657c-4.967-2.849-9.209-6.551-12.7-11.1-10.785-14.054-14.683-36.083-11.425-62.409zm48.888 36.444c1.906.375 3.842.564 5.779.564 1.981 0 3.962-.201 5.911-.593l5.809 43.317c-3.708.562-7.63.861-11.79.861-3.903 0-7.598-.26-11.103-.754zm36.793 36.693-6.48-48.326 5.053-5.053c2.254 1.91 5.236 2.725 8.151 2.227 2.92-.5 5.468-2.27 6.957-4.831l9.854-16.953c3.213 26.248-.697 48.208-11.46 62.223-3.342 4.352-7.38 7.918-12.075 10.713zm2.403-76.378-21.294-18.117c8.743-.767 17.264-2.334 25.484-4.639 2.612.679 5.191 1.426 7.739 2.234zm131.03-268.866c9.244 19.555 6.985 42.968-6.671 69.738-5.024-4.316-11.278-7.237-18.161-8.147v-30.688c0-24.652-6.431-47.827-17.69-67.95 17.636 7.232 34.295 19.642 42.522 37.047zm-328.905.021c8.219-17.404 24.888-29.824 42.529-37.063-11.257 20.122-17.687 43.295-17.687 67.944v30.688c-6.882.91-13.137 3.831-18.161 8.147-13.651-26.759-15.913-50.165-6.681-69.716zm44.812 120.499c-.401-5.21-4.746-9.232-9.971-9.232h-5.384c-8.271 0-15-6.729-15-15s6.729-15 15.003-15l5.384-.002c5.521-.002 9.997-4.479 9.997-10v-40.383c.001-65.956 53.66-119.616 119.616-119.616 35.866 0 68.091 15.87 90.034 40.953.256.34.537.661.835.966 17.912 20.917 28.748 48.064 28.748 77.697v40.381c0 5.514 4.464 9.988 9.978 10 1.623.003 3.25.005 4.868.003h.537c8.271 0 15 6.729 15 15s-6.729 15-15 15h-5.384c-5.225 0-9.569 4.022-9.971 9.232-4.618 59.976-53.471 107.531-113.635 110.616-64.329 3.292-120.705-46.322-125.655-110.615zm229.643 262.769v-32.743c0-5.523-4.477-10-10-10s-10 4.477-10 10v32.743h-179.995v-32.743c0-5.523-4.477-10-10-10s-10 4.477-10 10v32.743h-39.793c2.744-52.272 32.259-98.269 76.704-122.987-6.155 35.627-1.31 66.465 13.979 86.39 13.056 17.015 33.471 26.008 59.038 26.008 25.557 0 45.966-8.986 59.022-25.987 15.311-19.937 20.157-50.82 13.979-86.495 44.527 24.7 74.109 70.751 76.859 123.071z"/><path d="m296.002 220c5.523 0 10-4.477 10-10v-.007c0-5.523-4.477-9.997-10-9.997s-10 4.481-10 10.004 4.477 10 10 10z"/><path d="m215.999 199.996c-5.523 0-10 4.481-10 10.004s4.477 10 10 10 10-4.477 10-10v-.007c0-5.523-4.477-9.997-10-9.997z"/><path d="m290.16 298.142c11.721-1.913 23.909-8.326 37.26-19.605 2.729-2.305 4.021-5.891 3.389-9.407-.631-3.516-3.091-6.428-6.451-7.639-8.31-2.995-13.694-10.001-19.395-17.418-9.39-12.218-22.061-28.708-48.962-16.643-26.899-12.065-39.571 4.424-48.962 16.643-5.7 7.417-11.085 14.423-19.395 17.418-3.36 1.211-5.82 4.124-6.451 7.639-.632 3.516.66 7.102 3.389 9.407 13.351 11.279 25.539 17.692 37.26 19.605 12.269 2.004 23.725-.896 34.16-8.622 8.302 6.146 17.246 9.237 26.733 9.237 2.438-.001 4.916-.205 7.425-.615zm-27.088-28.895c-1.953-1.953-4.512-2.929-7.071-2.929s-5.119.976-7.071 2.929c-8.532 8.533-19.896 14.97-39.939 2.508 5.727-4.854 10.089-10.53 13.906-15.496 9.831-12.791 13.143-17.101 28.349-8.88 2.968 1.604 6.543 1.604 9.51 0 15.208-8.22 18.519-3.912 28.35 8.88 3.817 4.966 8.179 10.643 13.906 15.496-20.044 12.463-31.408 6.024-39.94-2.508z"/><path d="m213.366 70.901c5.523 0 10-4.477 10-10s-4.477-10-10-10h-.007c-5.523 0-9.996 4.477-9.996 10s4.48 10 10.003 10z"/></g></g></svg>