<svg id="Layer_1" enable-background="new 0 0 512.002 512.002" height="512" viewBox="0 0 512.002 512.002" width="512" xmlns="http://www.w3.org/2000/svg"><g><g clip-rule="evenodd" fill-rule="evenodd"><path d="m233.767 468.565c-44.046-12.486-50.894-64.06-37.076-115.631l-1.457-.866c-58.091 24.046-99.233 81.414-99.233 147.932v2.001h320v-2.001c0-66.392-40.986-123.669-98.904-147.796l-1.926.73c13.738 51.272 7.049 102.549-36.315 115.41-6.736 1.998-14.357 3.069-22.924 3.069-8.247 0-15.617-.992-22.165-2.848z" fill="#c68a65"/><path d="m284.212 386.279-28.211-24.003-28.294 24.074.443 1.822 13.886 13.886c7.681 7.681 20.251 7.68 27.931 0l14.012-14.011z" fill="#8481e2"/><path d="m255.931 471.413c8.567 0 16.188-1.071 22.924-3.069l-8.822-65.792-.197-.366c-7.653 7.513-20.04 7.508-27.687-.017l-.175.388-8.206 66.008c6.547 1.856 13.917 2.848 22.163 2.848z" fill="#8481e2"/><g fill="#fff"><path d="m233.767 468.565 8.206-66.008.175-.388c-.038-.037-.076-.075-.113-.112l-13.886-13.886-.443-1.822-7.756 6.599-23.26-40.014c-13.817 51.57-6.969 103.145 37.077 115.631z"/><path d="m278.235 468.565-8.206-66.008-.175-.388c.038-.037.076-.075.113-.112l13.886-13.886.443-1.822 7.756 6.599 23.26-40.014c13.816 51.57 6.969 103.145-37.077 115.631z"/><path d="m315.998 351.751c-7.268-2.964-14.798-5.408-22.544-7.284-11.871 3.597-24.447 5.533-37.453 5.533s-25.581-1.935-37.453-5.533c-7.745 1.876-15.276 4.319-22.543 7.284l23.947 41.197 7.011-5.965 29.039-24.708 29.039 24.708 7.011 5.965z"/></g><path d="m106.384 106.675h129.48c33 0 60-27 60-60-1.704-20.46-18.981-36.675-39.862-36.675h-54.809c-52.145 0-94.809 42.664-94.809 94.809z" fill="#6d91ac"/><path d="m296.002 50.752c2.113 31.118 28.231 55.923 59.862 55.923h49.753v-26.675c0-33-27-60-60-60h-19.616c-16.5 0-30 13.5-30 30v.752z" fill="#6d91ac"/><path d="m405.617 106.675h-49.753c-31.63 0-57.748-24.805-59.862-55.923v49.247c0 33 27 60 60 60h9.615c.001 10.999 9.001 19.998 20 19.998 1.795.004 3.589.003 5.384.003 5.446 0 10.499 1.764 14.617 4.752v-78.077z" fill="#a7bdcd"/><path d="m236.002 159.999c33 0 60-27 60-60v-49.247c-.092-1.348-.138-2.707-.138-4.077 0 33-27 60-60 60h-129.48v78.075c4.118-2.986 9.171-4.75 14.617-4.75l5.384-.002c11 0 20-9 20-20h89.617z" fill="#a7bdcd"/><path d="m296.002 99.999c0 33-27 60-60 60h-89.617c0 11-9 20-20 20l-5.384.001c-5.446 0-10.499 1.764-14.617 4.75-6.28 4.553-10.384 11.946-10.384 20.25 0 13.75 11.25 25 25 25h5.384c5.402 70.159 66.45 123.409 136.138 119.835 63.869-3.275 117.999-53.672 123.093-119.835h5.384c13.75 0 25-11.25 25-25 0-8.305-4.104-15.697-10.384-20.25-4.118-2.986-9.171-4.75-14.617-4.75-1.795 0-3.59.001-5.384-.003-11 0-19.999-8.999-20-19.998h-9.615c-32.997 0-59.997-27-59.997-60zm-104.968 170.899c28.652-10.328 27.986-52.306 64.966-32.316 36.981-19.99 36.314 21.989 64.966 32.316-21.102 17.828-43.688 26.698-64.966 5.42-21.277 21.278-43.863 12.408-64.966-5.42z" fill="#ffdcd5"/><path d="m256.001 238.582c-36.981-19.99-36.314 21.989-64.966 32.316 21.102 17.828 43.688 26.698 64.966 5.42 21.278 21.278 43.864 12.407 64.966-5.42-28.652-10.328-27.985-52.306-64.966-32.316z" fill="#6d91ac"/></g><g><path d="m388.854 394.229c-17.802-22.288-40.99-39.783-66.942-50.818 38.441-20.629 66.262-58.655 72.682-103.594 17.617-1.805 31.407-16.731 31.407-34.817 0-9.709-3.976-18.505-10.383-24.852v-100.148c0-38.598-31.402-70-70-70h-19.616c-11.181 0-21.306 4.611-28.571 12.033-8.997-13.285-24.211-22.033-41.429-22.033h-54.81c-57.791 0-104.808 47.017-104.808 104.809v75.339c-6.407 6.347-10.384 15.143-10.384 24.852 0 18.086 13.788 33.012 31.405 34.817 4.694 32.958 20.937 62.964 46.345 85.266 8.17 7.172 17.007 13.298 26.339 18.327-25.935 11.028-49.111 28.509-66.909 50.779-23.975 30-37.179 67.578-37.179 105.811v2.001c0 5.523 4.477 10 10 10h320c5.523 0 10-4.477 10-10v-2.001c0-38.216-13.192-75.779-37.147-105.771zm-170.527-39.39c8.313 2.339 16.851 3.897 25.523 4.646l-21.265 18.093-11.929-20.522c2.525-.801 5.081-1.543 7.671-2.217zm44.569 40.147c-3.802 3.802-9.987 3.802-13.789 0l-7.41-7.41 14.304-12.17 14.305 12.171zm-61.562-14.166 9.971 17.153c1.489 2.562 4.037 4.331 6.957 4.831 2.916.499 5.898-.317 8.151-2.227l5.095 5.095-6.049 48.658c-4.967-2.849-9.209-6.551-12.699-11.1-10.785-14.055-14.683-36.084-11.426-62.41zm48.888 36.444c1.906.375 3.842.564 5.779.564 1.981 0 3.962-.201 5.912-.593l5.809 43.318c-3.708.562-7.63.861-11.79.861-3.903 0-7.598-.26-11.104-.755zm36.794 36.693-6.48-48.326 5.053-5.053c2.254 1.91 5.236 2.725 8.151 2.227 2.92-.5 5.468-2.27 6.957-4.831l9.854-16.953c3.213 26.248-.697 48.208-11.46 62.223-3.342 4.352-7.38 7.918-12.075 10.713zm2.402-76.378-21.294-18.117c8.743-.767 17.264-2.333 25.484-4.639 2.612.679 5.191 1.426 7.739 2.234zm101.583-207.579h-.539c-1.608 0-3.216 0-4.824-.003-.007 0-.015 0-.022 0-5.514 0-10-4.486-10-10 0-5.522-4.478-9.999-10-9.999h-9.615c-27.57 0-50-22.43-50-50v-4.253c12.706 12.908 30.363 20.929 49.862 20.929h39.753v53.64c-1.51-.2-3.049-.314-4.615-.314zm-64.999-140h19.616c27.57 0 50 22.43 50 50v16.675h-39.753c-26.383 0-48.045-20.545-49.862-46.474v-.201c-.001-11.027 8.971-20 19.999-20zm-209.618 74.809c0-46.764 38.045-84.809 84.809-84.809h54.81c15.543 0 28.36 11.882 29.853 27.039-.197 27.402-22.543 49.636-49.991 49.636h-39.48c-5.523 0-10 4.477-10 10s4.477 10 10 10h39.48c19.64 0 37.413-8.137 50.138-21.209v4.534c0 27.57-22.43 50-50 50h-89.617c-5.523 0-10 4.477-10 10 0 5.514-4.486 10-10.004 10l-5.38.002c-1.566 0-3.105.114-4.617.314v-65.507zm19.971 124.424c-.401-5.21-4.746-9.232-9.971-9.232h-5.384c-8.271 0-15-6.729-15-15s6.729-15 15.004-15l5.38-.002c13.038 0 24.16-8.359 28.287-20h81.331c25.431 0 47.74-13.634 60-33.975 12.26 20.34 34.568 33.975 60 33.975h1.329c4.128 11.64 15.249 19.999 28.285 19.999 1.615.003 3.229.002 4.847.003h.538c8.271 0 15 6.729 15 15s-6.729 15-15 15h-5.384c-5.225 0-9.569 4.022-9.971 9.232-4.618 59.976-53.47 107.531-113.635 110.616-64.338 3.292-120.705-46.323-125.656-110.616zm229.644 262.769v-32.743c0-5.523-4.477-10-10-10s-10 4.477-10 10v32.743h-179.995v-32.743c0-5.523-4.477-10-10-10s-10 4.477-10 10v32.743h-39.794c2.744-52.272 32.259-98.269 76.704-122.987-6.155 35.628-1.31 66.465 13.979 86.39 13.056 17.015 33.471 26.008 59.038 26.008 25.557 0 45.966-8.986 59.022-25.987 15.31-19.937 20.157-50.819 13.979-86.495 44.527 24.7 74.109 70.751 76.859 123.071z"/><path d="m296.002 220c5.523 0 10-4.477 10-10v-.007c0-5.523-4.477-9.997-10-9.997s-10 4.481-10 10.004 4.477 10 10 10z"/><path d="m216 220c5.523 0 10-4.477 10-10v-.007c0-5.523-4.477-9.997-10-9.997s-10 4.481-10 10.004 4.477 10 10 10z"/><path d="m290.161 298.142c11.721-1.913 23.909-8.326 37.26-19.605 2.729-2.305 4.021-5.891 3.389-9.407-.631-3.516-3.091-6.428-6.451-7.639-8.31-2.995-13.695-10.001-19.395-17.418-9.391-12.219-22.062-28.709-48.962-16.643-26.898-12.065-39.572 4.424-48.962 16.643-5.701 7.417-11.085 14.423-19.395 17.418-3.36 1.211-5.82 4.124-6.451 7.639-.632 3.516.66 7.102 3.389 9.407 13.351 11.279 25.539 17.692 37.26 19.605 12.269 2.004 23.725-.896 34.16-8.622 8.302 6.146 17.246 9.237 26.733 9.237 2.438-.001 4.916-.205 7.425-.615zm-27.089-28.895c-1.953-1.953-4.512-2.929-7.071-2.929s-5.119.976-7.071 2.929c-8.532 8.533-19.896 14.97-39.939 2.508 5.727-4.854 10.089-10.53 13.906-15.496 9.831-12.791 13.143-17.101 28.35-8.88 2.967 1.604 6.542 1.604 9.51 0 15.207-8.22 18.519-3.911 28.349 8.88 3.817 4.966 8.179 10.643 13.906 15.496-20.044 12.463-31.407 6.024-39.94-2.508z"/><path d="m151.388 116.675c5.523 0 10-4.477 10-10s-4.477-10-10-10h-.007c-5.523 0-9.996 4.477-9.996 10s4.48 10 10.003 10z"/></g></g></svg>